<svg xmlns="http://www.w3.org/2000/svg" width="297" height="399" viewBox="0 0 297 399"><defs></defs><rect x="246" y="4" width="41" height="357" rx="18" fill="#080706" stroke="#8d665f" stroke-opacity=".35"/><g transform="translate(257 31)" fill="none" stroke="#99918a" stroke-width="1.3"><path d="M0 0H15V6H0ZM4 10H12M7 -5V-2"/></g><g transform="translate(257 76)" fill="none" stroke="#99918a" stroke-width="1.3"><path d="M0 0H15V6H0ZM4 10H12M7 -5V-2"/></g><g transform="translate(257 121)" fill="none" stroke="#99918a" stroke-width="1.3"><path d="M0 0H15V6H0ZM4 10H12M7 -5V-2"/></g><g transform="translate(257 166)" fill="none" stroke="#99918a" stroke-width="1.3"><path d="M0 0H15V6H0ZM4 10H12M7 -5V-2"/></g><g transform="translate(257 211)" fill="none" stroke="#ff2d20" stroke-width="1.3"><path d="M0 0H15V6H0ZM4 10H12M7 -5V-2"/></g><g transform="translate(257 256)" fill="none" stroke="#99918a" stroke-width="1.3"><path d="M0 0H15V6H0ZM4 10H12M7 -5V-2"/></g><g transform="translate(257 301)" fill="none" stroke="#99918a" stroke-width="1.3"><path d="M0 0H15V6H0ZM4 10H12M7 -5V-2"/></g><circle cx="65" cy="345" r="53" fill="none" stroke="#ddd" stroke-width=".6" stroke-dasharray="2 4"/><text x="43" y="350" fill="#eee" font-family="Arial, Helvetica, sans-serif" font-size="14" font-weight="700" >2026</text><path id="ring" d="M65 301 A44 44 0 1 1 64.9 301" fill="none"/><text font-family="Arial" font-size="7" fill="#eee" letter-spacing="1.5"><textPath href="#ring">LUCAS COELHO · DESIGNER · LUCAS COELHO ·</textPath></text></svg>